<svg xmlns="http://www.w3.org/2000/svg" width="1200" height="508" viewBox="0 0 1200 508" role="img" aria-label="code-by-wire — sessions, live states, and per-session panels">
  <defs>
    <filter id="winShadow" x="-10%" y="-10%" width="120%" height="160%">
      <feDropShadow dx="0" dy="16" stdDeviation="28" flood-color="#000000" flood-opacity="0.5"/>
    </filter>
  </defs>

  <rect width="1200" height="508" fill="#0d1117"/>

  <g filter="url(#winShadow)">
    <rect x="24" y="20" width="1152" height="440" rx="14" fill="#161617" stroke="#30363d"/>
  </g>

  <circle cx="60" cy="44" r="7" fill="#ff5f56"/>
  <circle cx="84" cy="44" r="7" fill="#ffbd2e"/>
  <circle cx="108" cy="44" r="7" fill="#27c93f"/>
  <text x="1152" y="49" text-anchor="end" font-family="ui-monospace, SFMono-Regular, Menlo, monospace" font-size="14" fill="#6e7681">4 sessions · 312k tok · $2.18 equiv</text>
  <line x1="24" y1="68" x2="1176" y2="68" stroke="#2a2a2d"/>

  <rect x="48" y="96" width="660" height="72" rx="10" fill="#101a1a" stroke="#2dd4bf" stroke-opacity="0.4"/>
  <circle cx="80" cy="132" r="7" fill="#2dd4bf"/>
  <text x="104" y="139" font-family="-apple-system, Segoe UI, Roboto, sans-serif" font-size="20" fill="#c9d1d9">refactor auth flow</text>
  <text x="688" y="139" text-anchor="end" font-family="ui-monospace, SFMono-Regular, Menlo, monospace" font-size="14" fill="#6e7681">Working</text>

  <rect x="48" y="184" width="660" height="72" rx="10" fill="#10141a" stroke="#20262e"/>
  <circle cx="80" cy="220" r="7" fill="#f0a93b"/>
  <text x="104" y="227" font-family="-apple-system, Segoe UI, Roboto, sans-serif" font-size="20" fill="#c9d1d9">fix flaky payments test</text>
  <text x="688" y="227" text-anchor="end" font-family="ui-monospace, SFMono-Regular, Menlo, monospace" font-size="14" fill="#6e7681">Waiting</text>

  <rect x="48" y="272" width="660" height="72" rx="10" fill="#10141a" stroke="#20262e"/>
  <circle cx="80" cy="308" r="7" fill="#58a6ff"/>
  <text x="104" y="315" font-family="-apple-system, Segoe UI, Roboto, sans-serif" font-size="20" fill="#c9d1d9">write release notes</text>
  <text x="688" y="315" text-anchor="end" font-family="ui-monospace, SFMono-Regular, Menlo, monospace" font-size="14" fill="#6e7681">Idle</text>

  <rect x="48" y="360" width="660" height="72" rx="10" fill="#10141a" stroke="#20262e"/>
  <circle cx="80" cy="396" r="7" fill="#6e7681"/>
  <text x="104" y="403" font-family="-apple-system, Segoe UI, Roboto, sans-serif" font-size="20" fill="#c9d1d9">migrate config loader</text>
  <text x="688" y="403" text-anchor="end" font-family="ui-monospace, SFMono-Regular, Menlo, monospace" font-size="14" fill="#6e7681">Ended</text>

  <rect x="732" y="96" width="420" height="336" rx="12" fill="#10141a" stroke="#20262e"/>
  <text x="756" y="134" font-family="ui-monospace, SFMono-Regular, Menlo, monospace" font-size="13" letter-spacing="2" fill="#6e7681">REFACTOR AUTH FLOW</text>

  <text x="756" y="190" font-family="-apple-system, Segoe UI, Roboto, sans-serif" font-size="17" fill="#8b949e">tokens</text>
  <text x="1128" y="190" text-anchor="end" font-family="ui-monospace, SFMono-Regular, Menlo, monospace" font-size="17" fill="#ffffff">128.4k</text>
  <line x1="756" y1="210" x2="1128" y2="210" stroke="#1b2027"/>

  <text x="756" y="246" font-family="-apple-system, Segoe UI, Roboto, sans-serif" font-size="17" fill="#8b949e">equivalent value</text>
  <text x="1128" y="246" text-anchor="end" font-family="ui-monospace, SFMono-Regular, Menlo, monospace" font-size="17" fill="#ffffff">$0.94</text>
  <line x1="756" y1="266" x2="1128" y2="266" stroke="#1b2027"/>

  <text x="756" y="302" font-family="-apple-system, Segoe UI, Roboto, sans-serif" font-size="17" fill="#8b949e">context</text>
  <text x="1128" y="302" text-anchor="end" font-family="ui-monospace, SFMono-Regular, Menlo, monospace" font-size="17" fill="#ffffff">62%</text>

  <rect x="756" y="320" width="372" height="8" rx="4" fill="#20262e"/>
  <rect x="756" y="320" width="231" height="8" rx="4" fill="#2dd4bf"/>

  <text x="756" y="404" font-family="ui-monospace, SFMono-Regular, Menlo, monospace" font-size="14" fill="#586069">› transcript · tasks · git</text>
</svg>
